Cover ::
 
http://i.minus.com/iHh9abJyVlnTh.png


Screen ::
 
http://i.minus.com/igOxNceyMVA6e.png
 
http://i.minus.com/iNVS8lOHK6mhE.png
 
http://i.minus.com/ibxJqLxyvNchgq.png
 
http://i.minus.com/iI0zOfWU4XGJb.png
 
http://i.minus.com/ibxCOVS4IyMIaj.png
 
http://i.minus.com/iymdvGYTjF4E8.png
 
http://i.minus.com/ibyXv1FAhOwJNj.png
 
http://i.minus.com/ib0yszR8Ea3yv2.png


General Info ::
Format                           : AVI
Format/Info                      : Audio Video Interleave
File size                        : 79.8 MiB
Duration                         : 4mn 5s
Overall bit rate                 : 2 722 Kbps


Video Info ::
ID                               : 0
Format                           : AVC
Format/Info                      : Advanced Video Codec
Format profile                   : High@L5.1
Format settings, CABAC           : Yes
Format settings, ReFrames        : 2 frames
Codec ID                         : H264
Duration                         : 10s 0ms
Bit rate                         : 2 518 Kbps
Width                            : 1 280 pixels
Height                           : 544 pixels
Display aspect ratio             : 2.35:1
Frame rate                       : 30.000 fps
Color space                      : YUV
Chroma subsampling               : 4:2:0
Bit depth                        : 8 bits
Scan type                        : Progressive
Bits/(Pixel*Frame)               : 0.121
Stream size                      : 73.8 MiB (93%)


Audio Info ::
ID                               : 1
Format                           : MPEG Audio
Format version                   : Version 1
Format profile                   : Layer 3
Codec ID                         : 55
Codec ID/Hint                    : MP3
Duration                         : 4mn 5s
Bit rate mode                    : Constant
Bit rate                         : 192 Kbps
Channel(s)                       : 2 channels
Sampling rate                    : 44.1 KHz
Compression mode                 : Lossy
Stream size                      : 5.63 MiB (7%)